<svg width="193" height="193" viewBox="0 0 193 193" fill="none"
    xmlns="http://www.w3.org/2000/svg">
    <rect width="193" height="193" fill="white"/>
    <path d="M90.2705 112.936C90.2705 125.096 80.2865 137 60.0625 137H17.0545C16.6705 137 16.6705 135.976 17.0545 135.976H28.3185C28.8305 135.976 29.0865 135.848 29.0865 135.464V47.784C29.0865 47.4 28.8305 47.272 28.3185 47.272H17.0545C16.6705 47.272 16.6705 46.248 17.0545 46.248H53.7905C69.9185 46.248 83.7425 53.032 83.7425 67.24C83.7425 79.528 72.0945 88.616 59.9345 88.616C77.3425 88.616 90.2705 97.704 90.2705 112.936ZM68.1265 67.752C68.1265 52.648 64.5425 47.272 51.7425 47.272H47.6465C47.1345 47.272 46.8785 47.4 46.8785 47.784V88.104H56.0945C65.4385 88.104 68.1265 83.496 68.1265 67.752ZM72.8625 113.704C72.8625 93.224 67.7425 89 54.8145 89H46.8785V135.464C46.8785 135.848 47.1345 135.976 47.6465 135.976H56.6065C68.6385 135.976 72.8625 130.472 72.8625 113.704ZM184.898 137H141.634C141.25 137 141.25 135.976 141.634 135.976H153.41C153.922 135.976 154.05 135.72 154.05 135.464L143.682 106.024H115.906L106.946 130.6C105.282 135.208 105.154 135.976 105.922 135.976H117.442C117.698 135.976 117.698 137 117.442 137H93.1215C92.8655 137 92.8655 135.976 93.1215 135.976H102.85C104.002 135.976 104.258 135.592 105.922 130.6L137.154 44.456C137.282 44.072 138.178 44.072 138.306 44.456L172.994 135.464C173.122 135.72 173.506 135.976 174.018 135.976H184.898C185.154 135.976 185.154 137 184.898 137ZM143.298 105L130.114 66.728L116.29 105H143.298Z" fill="black"/>
</svg>
